<svg width="193" height="192" viewBox="0 0 193 192" fill="none" xmlns="http://www.w3.org/2000/svg">
<path fill-rule="evenodd" clip-rule="evenodd" d="M185.948 185.06H5.94824V5.05957H154.401L185.948 36.6067V185.06Z" fill="url(#paint0_linear_2_969)"/>
<path fill-rule="evenodd" clip-rule="evenodd" d="M151.953 106.229C151.78 105.278 151.897 104.296 152.287 103.412C152.659 102.544 153.276 101.804 154.063 101.283C154.85 100.762 155.772 100.482 156.716 100.479H156.98C158.536 100.479 160.028 99.8606 161.128 98.7605C162.228 97.6604 162.846 96.1683 162.846 94.6125C162.846 93.0567 162.228 91.5647 161.128 90.4646C160.028 89.3645 158.536 88.7464 156.98 88.7464H156.481C155.538 88.7427 154.616 88.463 153.829 87.9419C153.042 87.4208 152.424 86.6809 152.053 85.8134V85.5788C151.662 84.6941 151.546 83.7128 151.718 82.7613C151.891 81.8099 152.344 80.9319 153.02 80.2406L153.196 80.0647C153.742 79.5199 154.175 78.8729 154.47 78.1608C154.765 77.4486 154.917 76.6853 154.917 75.9144C154.917 75.1435 154.765 74.3802 154.47 73.6681C154.175 72.9559 153.742 72.309 153.196 71.7642C152.652 71.2188 152.005 70.7861 151.293 70.4909C150.58 70.1957 149.817 70.0437 149.046 70.0437C148.275 70.0437 147.512 70.1957 146.8 70.4909C146.088 70.7861 145.441 71.2188 144.896 71.7642L144.72 71.9401C144.029 72.6163 143.151 73.0699 142.199 73.2424C141.248 73.4149 140.266 73.2985 139.382 72.908C138.514 72.5362 137.774 71.9189 137.253 71.132C136.732 70.3451 136.453 69.423 136.449 68.4792V68.2152C136.449 66.6594 135.831 65.1674 134.731 64.0673C133.631 62.9672 132.139 62.3491 130.583 62.3491C129.027 62.3491 127.535 62.9672 126.435 64.0673C125.335 65.1674 124.717 66.6594 124.717 68.2152V68.7138C124.713 69.6576 124.433 70.5797 123.912 71.3666C123.391 72.1535 122.651 72.7709 121.784 73.1427H121.549C120.664 73.5331 119.683 73.6496 118.732 73.4771C117.78 73.3046 116.902 72.851 116.211 72.1748L116.035 71.9988C115.49 71.4534 114.843 71.0207 114.131 70.7255C113.419 70.4303 112.656 70.2784 111.885 70.2784C111.114 70.2784 110.35 70.4303 109.638 70.7255C108.926 71.0207 108.279 71.4534 107.734 71.9988C107.189 72.5436 106.756 73.1906 106.461 73.9027C106.166 74.6148 106.014 75.3782 106.014 76.1491C106.014 76.9199 106.166 77.6833 106.461 78.3954C106.756 79.1075 107.189 79.7545 107.734 80.2993L107.91 80.4753C108.587 81.1665 109.04 82.0445 109.213 82.996C109.385 83.9474 109.269 84.9288 108.878 85.8134C108.543 86.7248 107.941 87.5143 107.152 88.0792C106.362 88.6441 105.42 88.9584 104.449 88.9811H104.185C102.63 88.9811 101.138 89.5991 100.037 90.6992C98.9374 91.7993 98.3193 93.2914 98.3193 94.8472C98.3193 96.4029 98.9374 97.895 100.037 98.9951C101.138 100.095 102.63 100.713 104.185 100.713H104.684C105.628 100.717 106.55 100.997 107.337 101.518C108.124 102.039 108.741 102.779 109.113 103.646C109.503 104.531 109.62 105.512 109.447 106.464C109.275 107.415 108.821 108.293 108.145 108.984L107.969 109.16C107.424 109.705 106.991 110.352 106.696 111.064C106.401 111.776 106.249 112.54 106.249 113.311C106.249 114.082 106.401 114.845 106.696 115.557C106.991 116.269 107.424 116.916 107.969 117.461C108.514 118.006 109.161 118.439 109.873 118.734C110.585 119.029 111.348 119.181 112.119 119.181C112.89 119.181 113.653 119.029 114.366 118.734C115.078 118.439 115.725 118.006 116.27 117.461L116.445 117.285C117.137 116.609 118.015 116.155 118.966 115.983C119.918 115.81 120.899 115.927 121.784 116.317C122.695 116.652 123.484 117.254 124.049 118.044C124.614 118.834 124.929 119.775 124.951 120.746V121.01C124.951 122.566 125.569 124.058 126.669 125.158C127.77 126.258 129.262 126.876 130.817 126.876C132.373 126.876 133.865 126.258 134.965 125.158C136.065 124.058 136.683 122.566 136.683 121.01V120.511C136.687 119.567 136.967 118.645 137.488 117.858C138.009 117.071 138.749 116.454 139.616 116.082C140.501 115.692 141.482 115.575 142.434 115.748C143.385 115.92 144.263 116.374 144.955 117.05L145.131 117.226C145.675 117.772 146.322 118.204 147.034 118.5C147.747 118.795 148.51 118.947 149.281 118.947C150.052 118.947 150.815 118.795 151.527 118.5C152.239 118.204 152.886 117.772 153.431 117.226C153.976 116.681 154.409 116.034 154.704 115.322C155 114.61 155.152 113.847 155.152 113.076C155.152 112.305 155 111.542 154.704 110.83C154.409 110.117 153.976 109.471 153.431 108.926L153.255 108.75C152.579 108.058 152.125 107.181 151.953 106.229ZM145.483 94.6124C145.483 102.842 138.812 109.513 130.582 109.513C122.353 109.513 115.681 102.842 115.681 94.6124C115.681 86.3828 122.353 79.7114 130.582 79.7114C138.812 79.7114 145.483 86.3828 145.483 94.6124Z" fill="#64EAFF"/>
<path d="M74.9069 102.015C76.081 102.015 77.0696 102.393 77.8729 103.148C78.6762 103.845 79.0779 104.746 79.0779 105.85C79.0779 106.953 78.6762 107.854 77.8729 108.551C77.0696 109.248 76.081 109.597 74.9069 109.597H69.9944V122.93C69.9944 124.091 69.5619 125.079 68.6968 125.892C67.8317 126.706 66.7812 127.112 65.5454 127.112C64.3095 127.112 63.2591 126.706 62.394 125.892C61.5907 125.079 61.189 124.091 61.189 122.93V109.597H35.7924C34.6801 109.597 33.6606 109.19 32.7337 108.377C31.8686 107.563 31.436 106.605 31.436 105.501C31.436 104.455 31.7759 103.526 32.4556 102.712L62.0232 67.768C62.4558 67.2452 62.981 66.8385 63.5989 66.548C64.2786 66.2575 64.9584 66.1123 65.6381 66.1123C66.8739 66.1123 67.8935 66.519 68.6968 67.3323C69.5619 68.1456 69.9944 69.1333 69.9944 70.2952V102.015H74.9069ZM43.1148 102.015H61.189V80.2295L43.1148 102.015Z" fill="#64EAFF"/>
<circle cx="90.3875" cy="120.643" r="6.2327" fill="#64EAFF"/>
<path d="M14.3121 147.311V177.429H45.9482L32.0089 191.369H0.497219V161.125L14.3121 147.311Z" fill="url(#paint1_linear_2_969)"/>
<path d="M178.437 147.311V177.429H146.801L160.74 191.369H192.252V161.125L178.437 147.311Z" fill="url(#paint2_linear_2_969)"/>
<path d="M14.3121 44.0581V13.9393H45.9482L32.0089 -3.8147e-06H0.497219V30.2433L14.3121 44.0581Z" fill="url(#paint3_linear_2_969)"/>
<defs>
<linearGradient id="paint0_linear_2_969" x1="5.94824" y1="185.06" x2="13.8763" y2="17.3179" gradientUnits="userSpaceOnUse">
<stop stop-color="#0B4986"/>
<stop offset="1" stop-color="#2388CF"/>
</linearGradient>
<linearGradient id="paint1_linear_2_969" x1="23.2227" y1="147.311" x2="23.2227" y2="191.369" gradientUnits="userSpaceOnUse">
<stop stop-color="#26B2F7"/>
<stop offset="1" stop-color="#0793D8"/>
</linearGradient>
<linearGradient id="paint2_linear_2_969" x1="169.526" y1="147.311" x2="169.526" y2="191.369" gradientUnits="userSpaceOnUse">
<stop stop-color="#26B2F7"/>
<stop offset="1" stop-color="#0793D8"/>
</linearGradient>
<linearGradient id="paint3_linear_2_969" x1="23.2227" y1="44.0581" x2="23.2227" y2="-3.8147e-06" gradientUnits="userSpaceOnUse">
<stop stop-color="#26B2F7"/>
<stop offset="1" stop-color="#0793D8"/>
</linearGradient>
</defs>
</svg>
