<svg width="192" height="192" viewBox="0 0 192 192" fill="none" xmlns="http://www.w3.org/2000/svg">
<path fill-rule="evenodd" clip-rule="evenodd" d="M185.451 185.06H5.45102V5.05957H153.904L185.451 36.6069V185.06Z" fill="url(#paint0_linear_2_1421)"/>
<path d="M13.8148 147.311V177.429H45.451L31.5117 191.369H-3.8147e-06V161.125L13.8148 147.311Z" fill="url(#paint1_linear_2_1421)"/>
<path d="M177.94 147.311V177.429H146.304L160.243 191.369H191.755V161.125L177.94 147.311Z" fill="url(#paint2_linear_2_1421)"/>
<path d="M13.8148 44.0581V13.9393H45.451L31.5117 -3.8147e-06H-3.8147e-06V30.2433L13.8148 44.0581Z" fill="url(#paint3_linear_2_1421)"/>
<path d="M52.7112 150.948H137.3V62.7446L114.194 39.1704H52.7112V150.948Z" stroke="#64EAFF" stroke-width="7" stroke-linejoin="round"/>
<path d="M111.523 39.2905V69.0813H138.191" stroke="#64EAFF" stroke-width="7" stroke-linejoin="round"/>
<circle cx="95.0055" cy="110.148" r="21.6961" stroke="#64EAFF" stroke-width="5"/>
<path d="M93.4948 89.9497V111.488H115.906" stroke="#64EAFF" stroke-width="5" stroke-linejoin="round"/>
<line x1="68.4004" y1="57.0576" x2="95.4031" y2="57.0576" stroke="#64EAFF" stroke-width="5" stroke-linecap="round"/>
<line x1="68.4004" y1="71.9165" x2="95.4031" y2="71.9165" stroke="#64EAFF" stroke-width="5" stroke-linecap="round"/>
<defs>
<linearGradient id="paint0_linear_2_1421" x1="5.45102" y1="185.06" x2="13.379" y2="17.3179" gradientUnits="userSpaceOnUse">
<stop stop-color="#0B4986"/>
<stop offset="1" stop-color="#2388CF"/>
</linearGradient>
<linearGradient id="paint1_linear_2_1421" x1="22.7255" y1="147.311" x2="22.7255" y2="191.369" gradientUnits="userSpaceOnUse">
<stop stop-color="#26B2F7"/>
<stop offset="1" stop-color="#0793D8"/>
</linearGradient>
<linearGradient id="paint2_linear_2_1421" x1="169.029" y1="147.311" x2="169.029" y2="191.369" gradientUnits="userSpaceOnUse">
<stop stop-color="#26B2F7"/>
<stop offset="1" stop-color="#0793D8"/>
</linearGradient>
<linearGradient id="paint3_linear_2_1421" x1="22.7255" y1="44.0581" x2="22.7255" y2="-3.8147e-06" gradientUnits="userSpaceOnUse">
<stop stop-color="#26B2F7"/>
<stop offset="1" stop-color="#0793D8"/>
</linearGradient>
</defs>
</svg>
